<?xml version="1.0" encoding="UTF-8" standalone="no"?>
<!DOCTYPE svg PUBLIC "-//W3C//DTD SVG 1.1//EN"
 "http://www.w3.org/Graphics/SVG/1.1/DTD/svg11.dtd">
<!-- Generated by graphviz version 2.40.1 (20161225.0304)
 -->
<!-- Title: dependencies Pages: 1 -->
<svg width="514pt" height="211pt"
 viewBox="0.00 0.00 514.00 211.00" xmlns="http://www.w3.org/2000/svg" xmlns:xlink="http://www.w3.org/1999/xlink">
<g id="graph0" class="graph" transform="scale(1 1) rotate(0) translate(4 207)">
<title>dependencies</title>
<polygon fill="#ffffff" stroke="transparent" points="-4,4 -4,-207 510,-207 510,4 -4,4"/>
<text text-anchor="start" x="232.0091" y="-42.4" font-family="sans-serif" font-weight="bold" font-size="14.00" fill="#000000">Legend</text>
<polygon fill="#ffffb3" stroke="transparent" points="19,-10 19,-30 39,-30 39,-10 19,-10"/>
<text text-anchor="start" x="42.629" y="-15.4" font-family="sans-serif" font-size="14.00" fill="#000000"> &#160;Declarations</text>
<polygon fill="#8dd3c7" stroke="transparent" points="132,-10 132,-30 152,-30 152,-10 132,-10"/>
<text text-anchor="start" x="155.7251" y="-15.4" font-family="sans-serif" font-size="14.00" fill="#000000"> &#160;Module</text>
<polygon fill="#80b1d3" stroke="transparent" points="218,-10 218,-30 238,-30 238,-10 218,-10"/>
<text text-anchor="start" x="241.7812" y="-15.4" font-family="sans-serif" font-size="14.00" fill="#000000"> &#160;Bootstrap</text>
<polygon fill="#fdb462" stroke="transparent" points="315,-10 315,-30 335,-30 335,-10 315,-10"/>
<text text-anchor="start" x="338.6732" y="-15.4" font-family="sans-serif" font-size="14.00" fill="#000000"> &#160;Providers</text>
<polygon fill="#fb8072" stroke="transparent" points="411,-10 411,-30 431,-30 431,-10 411,-10"/>
<text text-anchor="start" x="434.7258" y="-15.4" font-family="sans-serif" font-size="14.00" fill="#000000"> &#160;Exports</text>
<g id="clust1" class="cluster">
<title>cluster_ItemsModule</title>
<polygon fill="none" stroke="#000000" stroke-dasharray="1,5" points="8,-70 8,-195 498,-195 498,-70 8,-70"/>
</g>
<g id="clust2" class="cluster">
<title>cluster_ItemsModule_declarations</title>
<polygon fill="none" stroke="#000000" points="176,-78 176,-130 490,-130 490,-78 176,-78"/>
</g>
<g id="clust5" class="cluster">
<title>cluster_ItemsModule_imports</title>
<polygon fill="none" stroke="#000000" points="16,-78 16,-130 168,-130 168,-78 16,-78"/>
</g>
<!-- ItemsComponent -->
<g id="node1" class="node">
<title>ItemsComponent</title>
<polygon fill="#ffffb3" stroke="#000000" points="482.4342,-122 369.5658,-122 369.5658,-86 482.4342,-86 482.4342,-122"/>
<text text-anchor="middle" x="426" y="-99.8" font-family="Times,serif" font-size="14.00" fill="#000000">ItemsComponent</text>
</g>
<!-- ItemsModule -->
<g id="node3" class="node">
<title>ItemsModule</title>
<polygon fill="#8dd3c7" stroke="#000000" points="313.1515,-187 310.1515,-191 289.1515,-191 286.1515,-187 222.8485,-187 222.8485,-151 313.1515,-151 313.1515,-187"/>
<text text-anchor="middle" x="268" y="-164.8" font-family="Times,serif" font-size="14.00" fill="#000000">ItemsModule</text>
</g>
<!-- ItemsComponent&#45;&gt;ItemsModule -->
<g id="edge1" class="edge">
<title>ItemsComponent&#45;&gt;ItemsModule</title>
<path fill="none" stroke="#000000" d="M426,-122.1061C426,-141.3391 426,-169 426,-169 426,-169 323.2765,-169 323.2765,-169"/>
<polygon fill="#000000" stroke="#000000" points="323.2765,-165.5001 313.2765,-169 323.2764,-172.5001 323.2765,-165.5001"/>
</g>
<!-- ItemsOverviewComponent -->
<g id="node2" class="node">
<title>ItemsOverviewComponent</title>
<polygon fill="#ffffb3" stroke="#000000" points="351.6274,-122 184.3726,-122 184.3726,-86 351.6274,-86 351.6274,-122"/>
<text text-anchor="middle" x="268" y="-99.8" font-family="Times,serif" font-size="14.00" fill="#000000">ItemsOverviewComponent</text>
</g>
<!-- ItemsOverviewComponent&#45;&gt;ItemsModule -->
<g id="edge2" class="edge">
<title>ItemsOverviewComponent&#45;&gt;ItemsModule</title>
<path fill="none" stroke="#000000" d="M268,-122.1061C268,-122.1061 268,-140.991 268,-140.991"/>
<polygon fill="#000000" stroke="#000000" points="264.5001,-140.9909 268,-150.991 271.5001,-140.991 264.5001,-140.9909"/>
</g>
<!-- ItemsRoutingModule -->
<g id="node4" class="node">
<title>ItemsRoutingModule</title>
<polygon fill="#8dd3c7" stroke="#000000" points="159.7688,-122 156.7688,-126 135.7688,-126 132.7688,-122 24.2312,-122 24.2312,-86 159.7688,-86 159.7688,-122"/>
<text text-anchor="middle" x="92" y="-99.8" font-family="Times,serif" font-size="14.00" fill="#000000">ItemsRoutingModule</text>
</g>
<!-- ItemsRoutingModule&#45;&gt;ItemsModule -->
<g id="edge3" class="edge">
<title>ItemsRoutingModule&#45;&gt;ItemsModule</title>
<path fill="none" stroke="#000000" d="M92,-122.1061C92,-141.3391 92,-169 92,-169 92,-169 212.6756,-169 212.6756,-169"/>
<polygon fill="#000000" stroke="#000000" points="212.6757,-172.5001 222.6756,-169 212.6756,-165.5001 212.6757,-172.5001"/>
</g>
</g>
</svg>
