<?xml version="1.0" encoding="UTF-8" standalone="no"?>
<!DOCTYPE svg PUBLIC "-//W3C//DTD SVG 1.1//EN"
 "http://www.w3.org/Graphics/SVG/1.1/DTD/svg11.dtd">
<!-- Generated by graphviz version 2.40.1 (20161225.0304)
 -->
<!-- Title: dependencies Pages: 1 -->
<svg width="2157pt" height="360pt"
 viewBox="0.00 0.00 2157.00 360.00" xmlns="http://www.w3.org/2000/svg" xmlns:xlink="http://www.w3.org/1999/xlink">
<g id="graph0" class="graph" transform="scale(1 1) rotate(0) translate(4 356)">
<title>dependencies</title>
<polygon fill="#ffffff" stroke="transparent" points="-4,4 -4,-356 2153,-356 2153,4 -4,4"/>
<text text-anchor="start" x="1053.5091" y="-42.4" font-family="sans-serif" font-weight="bold" font-size="14.00" fill="#000000">Legend</text>
<polygon fill="#ffffb3" stroke="transparent" points="840.5,-10 840.5,-30 860.5,-30 860.5,-10 840.5,-10"/>
<text text-anchor="start" x="864.129" y="-15.4" font-family="sans-serif" font-size="14.00" fill="#000000"> &#160;Declarations</text>
<polygon fill="#8dd3c7" stroke="transparent" points="953.5,-10 953.5,-30 973.5,-30 973.5,-10 953.5,-10"/>
<text text-anchor="start" x="977.2251" y="-15.4" font-family="sans-serif" font-size="14.00" fill="#000000"> &#160;Module</text>
<polygon fill="#80b1d3" stroke="transparent" points="1039.5,-10 1039.5,-30 1059.5,-30 1059.5,-10 1039.5,-10"/>
<text text-anchor="start" x="1063.2812" y="-15.4" font-family="sans-serif" font-size="14.00" fill="#000000"> &#160;Bootstrap</text>
<polygon fill="#fdb462" stroke="transparent" points="1136.5,-10 1136.5,-30 1156.5,-30 1156.5,-10 1136.5,-10"/>
<text text-anchor="start" x="1160.1732" y="-15.4" font-family="sans-serif" font-size="14.00" fill="#000000"> &#160;Providers</text>
<polygon fill="#fb8072" stroke="transparent" points="1232.5,-10 1232.5,-30 1252.5,-30 1252.5,-10 1232.5,-10"/>
<text text-anchor="start" x="1256.2258" y="-15.4" font-family="sans-serif" font-size="14.00" fill="#000000"> &#160;Exports</text>
<g id="clust1" class="cluster">
<title>cluster_AppModule</title>
<polygon fill="none" stroke="#000000" stroke-dasharray="1,5" points="75,-146 75,-344 643,-344 643,-146 75,-146"/>
</g>
<g id="clust2" class="cluster">
<title>cluster_AppModule_declarations</title>
<polygon fill="none" stroke="#000000" points="513,-154 513,-206 635,-206 635,-154 513,-154"/>
</g>
<g id="clust4" class="cluster">
<title>cluster_AppModule_imports</title>
<polygon fill="none" stroke="#000000" points="255,-154 255,-206 505,-206 505,-154 255,-154"/>
</g>
<g id="clust6" class="cluster">
<title>cluster_AppModule_bootstrap</title>
<polygon fill="none" stroke="#000000" points="308,-284 308,-336 432,-336 432,-284 308,-284"/>
</g>
<g id="clust7" class="cluster">
<title>cluster_AppModule_providers</title>
<polygon fill="none" stroke="#000000" points="83,-154 83,-206 247,-206 247,-154 83,-154"/>
</g>
<g id="clust14" class="cluster">
<title>cluster_AppsModule</title>
<polygon fill="none" stroke="#000000" stroke-dasharray="1,5" points="675,-70 675,-206 975,-206 975,-70 675,-70"/>
</g>
<g id="clust15" class="cluster">
<title>cluster_AppsModule_declarations</title>
<polygon fill="none" stroke="#000000" points="841,-78 841,-130 967,-130 967,-78 841,-78"/>
</g>
<g id="clust17" class="cluster">
<title>cluster_AppsModule_imports</title>
<polygon fill="none" stroke="#000000" points="683,-78 683,-130 833,-130 833,-78 683,-78"/>
</g>
<g id="clust27" class="cluster">
<title>cluster_AuthModule</title>
<polygon fill="none" stroke="#000000" stroke-dasharray="1,5" points="8,-70 8,-138 667,-138 667,-70 8,-70"/>
</g>
<g id="clust28" class="cluster">
<title>cluster_AuthModule_declarations</title>
<polygon fill="none" stroke="#000000" points="196,-78 196,-130 659,-130 659,-78 196,-78"/>
</g>
<g id="clust35" class="cluster">
<title>cluster_AuthModule_providers</title>
<polygon fill="none" stroke="#000000" points="16,-78 16,-130 188,-130 188,-78 16,-78"/>
</g>
<g id="clust36" class="cluster">
<title>cluster_DashboardModule</title>
<polygon fill="none" stroke="#000000" stroke-dasharray="1,5" points="983,-70 983,-206 1347,-206 1347,-70 983,-70"/>
</g>
<g id="clust37" class="cluster">
<title>cluster_DashboardModule_declarations</title>
<polygon fill="none" stroke="#000000" points="1181,-78 1181,-130 1339,-130 1339,-78 1181,-78"/>
</g>
<g id="clust39" class="cluster">
<title>cluster_DashboardModule_imports</title>
<polygon fill="none" stroke="#000000" points="991,-78 991,-130 1173,-130 1173,-78 991,-78"/>
</g>
<g id="clust49" class="cluster">
<title>cluster_DevModule</title>
<polygon fill="none" stroke="#000000" stroke-dasharray="1,5" points="1355,-70 1355,-206 1643,-206 1643,-70 1355,-70"/>
</g>
<g id="clust50" class="cluster">
<title>cluster_DevModule_declarations</title>
<polygon fill="none" stroke="#000000" points="1515,-78 1515,-130 1635,-130 1635,-78 1515,-78"/>
</g>
<g id="clust52" class="cluster">
<title>cluster_DevModule_imports</title>
<polygon fill="none" stroke="#000000" points="1363,-78 1363,-130 1507,-130 1507,-78 1363,-78"/>
</g>
<g id="clust62" class="cluster">
<title>cluster_ItemsModule</title>
<polygon fill="none" stroke="#000000" stroke-dasharray="1,5" points="1651,-70 1651,-206 2141,-206 2141,-70 1651,-70"/>
</g>
<g id="clust63" class="cluster">
<title>cluster_ItemsModule_declarations</title>
<polygon fill="none" stroke="#000000" points="1819,-78 1819,-130 2133,-130 2133,-78 1819,-78"/>
</g>
<g id="clust66" class="cluster">
<title>cluster_ItemsModule_imports</title>
<polygon fill="none" stroke="#000000" points="1659,-78 1659,-130 1811,-130 1811,-78 1659,-78"/>
</g>
<!-- AppComponent -->
<g id="node1" class="node">
<title>AppComponent</title>
<polygon fill="#ffffb3" stroke="#000000" points="626.9399,-198 521.0601,-198 521.0601,-162 626.9399,-162 626.9399,-198"/>
<text text-anchor="middle" x="574" y="-175.8" font-family="Times,serif" font-size="14.00" fill="#000000">AppComponent</text>
</g>
<!-- AppModule -->
<g id="node2" class="node">
<title>AppModule</title>
<polygon fill="#8dd3c7" stroke="#000000" points="411.6571,-263 408.6571,-267 387.6571,-267 384.6571,-263 328.3429,-263 328.3429,-227 411.6571,-227 411.6571,-263"/>
<text text-anchor="middle" x="370" y="-240.8" font-family="Times,serif" font-size="14.00" fill="#000000">AppModule</text>
</g>
<!-- AppComponent&#45;&gt;AppModule -->
<g id="edge1" class="edge">
<title>AppComponent&#45;&gt;AppModule</title>
<path fill="none" stroke="#000000" d="M574,-198.1061C574,-217.3391 574,-245 574,-245 574,-245 421.7747,-245 421.7747,-245"/>
<polygon fill="#000000" stroke="#000000" points="421.7747,-241.5001 411.7747,-245 421.7747,-248.5001 421.7747,-241.5001"/>
</g>
<!-- AppComponent  -->
<g id="node5" class="node">
<title>AppComponent </title>
<polygon fill="#80b1d3" stroke="#000000" points="424.439,-328 315.561,-328 315.561,-292 424.439,-292 424.439,-328"/>
<text text-anchor="middle" x="370" y="-305.8" font-family="Times,serif" font-size="14.00" fill="#000000">AppComponent </text>
</g>
<!-- AppModule&#45;&gt;AppComponent  -->
<g id="edge4" class="edge">
<title>AppModule&#45;&gt;AppComponent </title>
<path fill="none" stroke="#000000" stroke-dasharray="1,5" d="M370,-263.1061C370,-263.1061 370,-281.991 370,-281.991"/>
<polygon fill="#000000" stroke="#000000" points="366.5001,-281.9909 370,-291.991 373.5001,-281.991 366.5001,-281.9909"/>
</g>
<!-- AppRoutingModule -->
<g id="node3" class="node">
<title>AppRoutingModule</title>
<polygon fill="#8dd3c7" stroke="#000000" points="497.2744,-198 494.2744,-202 473.2744,-202 470.2744,-198 368.7256,-198 368.7256,-162 497.2744,-162 497.2744,-198"/>
<text text-anchor="middle" x="433" y="-175.8" font-family="Times,serif" font-size="14.00" fill="#000000">AppRoutingModule</text>
</g>
<!-- AppRoutingModule&#45;&gt;AppModule -->
<g id="edge2" class="edge">
<title>AppRoutingModule&#45;&gt;AppModule</title>
<path fill="none" stroke="#000000" d="M390.2206,-198.1061C390.2206,-198.1061 390.2206,-216.991 390.2206,-216.991"/>
<polygon fill="#000000" stroke="#000000" points="386.7206,-216.9909 390.2206,-226.991 393.7206,-216.991 386.7206,-216.9909"/>
</g>
<!-- AuthModule -->
<g id="node4" class="node">
<title>AuthModule</title>
<polygon fill="#8dd3c7" stroke="#000000" points="350.5482,-198 347.5482,-202 326.5482,-202 323.5482,-198 263.4518,-198 263.4518,-162 350.5482,-162 350.5482,-198"/>
<text text-anchor="middle" x="307" y="-175.8" font-family="Times,serif" font-size="14.00" fill="#000000">AuthModule</text>
</g>
<!-- AuthModule&#45;&gt;AppModule -->
<g id="edge3" class="edge">
<title>AuthModule&#45;&gt;AppModule</title>
<path fill="none" stroke="#000000" d="M339.4727,-198.1061C339.4727,-198.1061 339.4727,-216.991 339.4727,-216.991"/>
<polygon fill="#000000" stroke="#000000" points="335.9727,-216.9909 339.4727,-226.991 342.9727,-216.991 335.9727,-216.9909"/>
</g>
<!-- ErrorInterceptor -->
<g id="node6" class="node">
<title>ErrorInterceptor</title>
<ellipse fill="#fdb462" stroke="#000000" cx="165" cy="-180" rx="73.5329" ry="18"/>
<text text-anchor="middle" x="165" y="-175.8" font-family="Times,serif" font-size="14.00" fill="#000000">ErrorInterceptor</text>
</g>
<!-- ErrorInterceptor&#45;&gt;AppModule -->
<g id="edge5" class="edge">
<title>ErrorInterceptor&#45;&gt;AppModule</title>
<path fill="none" stroke="#000000" d="M165,-198.1061C165,-217.3391 165,-245 165,-245 165,-245 318.0205,-245 318.0205,-245"/>
<polygon fill="#000000" stroke="#000000" points="318.0205,-248.5001 328.0205,-245 318.0205,-241.5001 318.0205,-248.5001"/>
</g>
<!-- AppsComponent -->
<g id="node7" class="node">
<title>AppsComponent</title>
<polygon fill="#ffffb3" stroke="#000000" points="959.3837,-122 848.6163,-122 848.6163,-86 959.3837,-86 959.3837,-122"/>
<text text-anchor="middle" x="904" y="-99.8" font-family="Times,serif" font-size="14.00" fill="#000000">AppsComponent</text>
</g>
<!-- AppsModule -->
<g id="node8" class="node">
<title>AppsModule</title>
<polygon fill="#8dd3c7" stroke="#000000" points="875.6011,-198 872.6011,-202 851.6011,-202 848.6011,-198 786.3989,-198 786.3989,-162 875.6011,-162 875.6011,-198"/>
<text text-anchor="middle" x="831" y="-175.8" font-family="Times,serif" font-size="14.00" fill="#000000">AppsModule</text>
</g>
<!-- AppsComponent&#45;&gt;AppsModule -->
<g id="edge6" class="edge">
<title>AppsComponent&#45;&gt;AppsModule</title>
<path fill="none" stroke="#000000" d="M862.0544,-122.0109C862.0544,-122.0109 862.0544,-151.855 862.0544,-151.855"/>
<polygon fill="#000000" stroke="#000000" points="858.5544,-151.8549 862.0544,-161.855 865.5544,-151.855 858.5544,-151.8549"/>
</g>
<!-- AppsRoutingModule -->
<g id="node9" class="node">
<title>AppsRoutingModule</title>
<polygon fill="#8dd3c7" stroke="#000000" points="825.219,-122 822.219,-126 801.219,-126 798.219,-122 690.781,-122 690.781,-86 825.219,-86 825.219,-122"/>
<text text-anchor="middle" x="758" y="-99.8" font-family="Times,serif" font-size="14.00" fill="#000000">AppsRoutingModule</text>
</g>
<!-- AppsRoutingModule&#45;&gt;AppsModule -->
<g id="edge7" class="edge">
<title>AppsRoutingModule&#45;&gt;AppsModule</title>
<path fill="none" stroke="#000000" d="M805.7795,-122.0109C805.7795,-122.0109 805.7795,-151.855 805.7795,-151.855"/>
<polygon fill="#000000" stroke="#000000" points="802.2795,-151.8549 805.7795,-161.855 809.2795,-151.855 802.2795,-151.8549"/>
</g>
<!-- AuthComponent -->
<g id="node10" class="node">
<title>AuthComponent</title>
<polygon fill="#ffffb3" stroke="#000000" points="650.8301,-122 541.1699,-122 541.1699,-86 650.8301,-86 650.8301,-122"/>
<text text-anchor="middle" x="596" y="-99.8" font-family="Times,serif" font-size="14.00" fill="#000000">AuthComponent</text>
</g>
<!-- AuthComponent&#45;&gt;AuthModule -->
<g id="edge8" class="edge">
<title>AuthComponent&#45;&gt;AuthModule</title>
<path fill="none" stroke="#000000" d="M584.0274,-122.1467C584.0274,-135.7395 584.0274,-152 584.0274,-152 584.0274,-152 333.2641,-152 333.2641,-152 333.2641,-152 333.2641,-152.9793 333.2641,-152.9793"/>
<polygon fill="#000000" stroke="#000000" points="329.7642,-151.793 333.2641,-161.793 336.7642,-151.7931 329.7642,-151.793"/>
</g>
<!-- AuthLoginComponent -->
<g id="node11" class="node">
<title>AuthLoginComponent</title>
<polygon fill="#ffffb3" stroke="#000000" points="523.273,-122 380.727,-122 380.727,-86 523.273,-86 523.273,-122"/>
<text text-anchor="middle" x="452" y="-99.8" font-family="Times,serif" font-size="14.00" fill="#000000">AuthLoginComponent</text>
</g>
<!-- AuthLoginComponent&#45;&gt;AuthModule -->
<g id="edge9" class="edge">
<title>AuthLoginComponent&#45;&gt;AuthModule</title>
<path fill="none" stroke="#000000" d="M439.0004,-122.1097C439.0004,-131.897 439.0004,-142 439.0004,-142 439.0004,-142 315.7547,-142 315.7547,-142 315.7547,-142 315.7547,-151.8903 315.7547,-151.8903"/>
<polygon fill="#000000" stroke="#000000" points="312.2548,-151.8903 315.7547,-161.8903 319.2548,-151.8904 312.2548,-151.8903"/>
</g>
<!-- OidcCallbackComponent -->
<g id="node12" class="node">
<title>OidcCallbackComponent</title>
<polygon fill="#ffffb3" stroke="#000000" points="362.3061,-122 203.6939,-122 203.6939,-86 362.3061,-86 362.3061,-122"/>
<text text-anchor="middle" x="283" y="-99.8" font-family="Times,serif" font-size="14.00" fill="#000000">OidcCallbackComponent</text>
</g>
<!-- OidcCallbackComponent&#45;&gt;AuthModule -->
<g id="edge10" class="edge">
<title>OidcCallbackComponent&#45;&gt;AuthModule</title>
<path fill="none" stroke="#000000" d="M298.2453,-122.0109C298.2453,-122.0109 298.2453,-151.855 298.2453,-151.855"/>
<polygon fill="#000000" stroke="#000000" points="294.7454,-151.8549 298.2453,-161.855 301.7454,-151.855 294.7454,-151.8549"/>
</g>
<!-- TokenInterceptor -->
<g id="node13" class="node">
<title>TokenInterceptor</title>
<ellipse fill="#fdb462" stroke="#000000" cx="102" cy="-104" rx="78.1308" ry="18"/>
<text text-anchor="middle" x="102" y="-99.8" font-family="Times,serif" font-size="14.00" fill="#000000">TokenInterceptor</text>
</g>
<!-- TokenInterceptor&#45;&gt;AuthModule -->
<g id="edge11" class="edge">
<title>TokenInterceptor&#45;&gt;AuthModule</title>
<path fill="none" stroke="#000000" d="M135.6496,-120.2877C135.6496,-126.4475 135.6496,-132 135.6496,-132 135.6496,-132 280.7359,-132 280.7359,-132 280.7359,-132 280.7359,-151.8533 280.7359,-151.8533"/>
<polygon fill="#000000" stroke="#000000" points="277.236,-151.8532 280.7359,-161.8533 284.236,-151.8533 277.236,-151.8532"/>
</g>
<!-- DashboardComponent -->
<g id="node14" class="node">
<title>DashboardComponent</title>
<polygon fill="#ffffb3" stroke="#000000" points="1330.9734,-122 1189.0266,-122 1189.0266,-86 1330.9734,-86 1330.9734,-122"/>
<text text-anchor="middle" x="1260" y="-99.8" font-family="Times,serif" font-size="14.00" fill="#000000">DashboardComponent</text>
</g>
<!-- DashboardModule -->
<g id="node15" class="node">
<title>DashboardModule</title>
<polygon fill="#8dd3c7" stroke="#000000" points="1231.191,-198 1228.191,-202 1207.191,-202 1204.191,-198 1110.809,-198 1110.809,-162 1231.191,-162 1231.191,-198"/>
<text text-anchor="middle" x="1171" y="-175.8" font-family="Times,serif" font-size="14.00" fill="#000000">DashboardModule</text>
</g>
<!-- DashboardComponent&#45;&gt;DashboardModule -->
<g id="edge12" class="edge">
<title>DashboardComponent&#45;&gt;DashboardModule</title>
<path fill="none" stroke="#000000" d="M1210.0543,-122.0109C1210.0543,-122.0109 1210.0543,-151.855 1210.0543,-151.855"/>
<polygon fill="#000000" stroke="#000000" points="1206.5544,-151.8549 1210.0543,-161.855 1213.5544,-151.855 1206.5544,-151.8549"/>
</g>
<!-- DashboardRoutingModule -->
<g id="node16" class="node">
<title>DashboardRoutingModule</title>
<polygon fill="#8dd3c7" stroke="#000000" points="1164.8089,-122 1161.8089,-126 1140.8089,-126 1137.8089,-122 999.1911,-122 999.1911,-86 1164.8089,-86 1164.8089,-122"/>
<text text-anchor="middle" x="1082" y="-99.8" font-family="Times,serif" font-size="14.00" fill="#000000">DashboardRoutingModule</text>
</g>
<!-- DashboardRoutingModule&#45;&gt;DashboardModule -->
<g id="edge13" class="edge">
<title>DashboardRoutingModule&#45;&gt;DashboardModule</title>
<path fill="none" stroke="#000000" d="M1137.7795,-122.0109C1137.7795,-122.0109 1137.7795,-151.855 1137.7795,-151.855"/>
<polygon fill="#000000" stroke="#000000" points="1134.2795,-151.8549 1137.7795,-161.855 1141.2795,-151.855 1134.2795,-151.8549"/>
</g>
<!-- DevComponent -->
<g id="node17" class="node">
<title>DevComponent</title>
<polygon fill="#ffffb3" stroke="#000000" points="1627.1542,-122 1522.8458,-122 1522.8458,-86 1627.1542,-86 1627.1542,-122"/>
<text text-anchor="middle" x="1575" y="-99.8" font-family="Times,serif" font-size="14.00" fill="#000000">DevComponent</text>
</g>
<!-- DevModule -->
<g id="node18" class="node">
<title>DevModule</title>
<polygon fill="#8dd3c7" stroke="#000000" points="1546.3711,-198 1543.3711,-202 1522.3711,-202 1519.3711,-198 1463.6289,-198 1463.6289,-162 1546.3711,-162 1546.3711,-198"/>
<text text-anchor="middle" x="1505" y="-175.8" font-family="Times,serif" font-size="14.00" fill="#000000">DevModule</text>
</g>
<!-- DevComponent&#45;&gt;DevModule -->
<g id="edge14" class="edge">
<title>DevComponent&#45;&gt;DevModule</title>
<path fill="none" stroke="#000000" d="M1534.5543,-122.0109C1534.5543,-122.0109 1534.5543,-151.855 1534.5543,-151.855"/>
<polygon fill="#000000" stroke="#000000" points="1531.0544,-151.8549 1534.5543,-161.855 1538.0544,-151.855 1531.0544,-151.8549"/>
</g>
<!-- DevRoutingModule -->
<g id="node19" class="node">
<title>DevRoutingModule</title>
<polygon fill="#8dd3c7" stroke="#000000" points="1498.9888,-122 1495.9888,-126 1474.9888,-126 1471.9888,-122 1371.0112,-122 1371.0112,-86 1498.9888,-86 1498.9888,-122"/>
<text text-anchor="middle" x="1435" y="-99.8" font-family="Times,serif" font-size="14.00" fill="#000000">DevRoutingModule</text>
</g>
<!-- DevRoutingModule&#45;&gt;DevModule -->
<g id="edge15" class="edge">
<title>DevRoutingModule&#45;&gt;DevModule</title>
<path fill="none" stroke="#000000" d="M1481.2795,-122.0109C1481.2795,-122.0109 1481.2795,-151.855 1481.2795,-151.855"/>
<polygon fill="#000000" stroke="#000000" points="1477.7795,-151.8549 1481.2795,-161.855 1484.7795,-151.855 1477.7795,-151.8549"/>
</g>
<!-- ItemsComponent -->
<g id="node20" class="node">
<title>ItemsComponent</title>
<polygon fill="#ffffb3" stroke="#000000" points="2125.4342,-122 2012.5658,-122 2012.5658,-86 2125.4342,-86 2125.4342,-122"/>
<text text-anchor="middle" x="2069" y="-99.8" font-family="Times,serif" font-size="14.00" fill="#000000">ItemsComponent</text>
</g>
<!-- ItemsModule -->
<g id="node22" class="node">
<title>ItemsModule</title>
<polygon fill="#8dd3c7" stroke="#000000" points="1956.1515,-198 1953.1515,-202 1932.1515,-202 1929.1515,-198 1865.8485,-198 1865.8485,-162 1956.1515,-162 1956.1515,-198"/>
<text text-anchor="middle" x="1911" y="-175.8" font-family="Times,serif" font-size="14.00" fill="#000000">ItemsModule</text>
</g>
<!-- ItemsComponent&#45;&gt;ItemsModule -->
<g id="edge16" class="edge">
<title>ItemsComponent&#45;&gt;ItemsModule</title>
<path fill="none" stroke="#000000" d="M2069,-122.0109C2069,-144.4852 2069,-180 2069,-180 2069,-180 1966.2765,-180 1966.2765,-180"/>
<polygon fill="#000000" stroke="#000000" points="1966.2765,-176.5001 1956.2765,-180 1966.2764,-183.5001 1966.2765,-176.5001"/>
</g>
<!-- ItemsOverviewComponent -->
<g id="node21" class="node">
<title>ItemsOverviewComponent</title>
<polygon fill="#ffffb3" stroke="#000000" points="1994.6274,-122 1827.3726,-122 1827.3726,-86 1994.6274,-86 1994.6274,-122"/>
<text text-anchor="middle" x="1911" y="-99.8" font-family="Times,serif" font-size="14.00" fill="#000000">ItemsOverviewComponent</text>
</g>
<!-- ItemsOverviewComponent&#45;&gt;ItemsModule -->
<g id="edge17" class="edge">
<title>ItemsOverviewComponent&#45;&gt;ItemsModule</title>
<path fill="none" stroke="#000000" d="M1911,-122.0109C1911,-122.0109 1911,-151.855 1911,-151.855"/>
<polygon fill="#000000" stroke="#000000" points="1907.5001,-151.8549 1911,-161.855 1914.5001,-151.855 1907.5001,-151.8549"/>
</g>
<!-- ItemsRoutingModule -->
<g id="node23" class="node">
<title>ItemsRoutingModule</title>
<polygon fill="#8dd3c7" stroke="#000000" points="1802.7688,-122 1799.7688,-126 1778.7688,-126 1775.7688,-122 1667.2312,-122 1667.2312,-86 1802.7688,-86 1802.7688,-122"/>
<text text-anchor="middle" x="1735" y="-99.8" font-family="Times,serif" font-size="14.00" fill="#000000">ItemsRoutingModule</text>
</g>
<!-- ItemsRoutingModule&#45;&gt;ItemsModule -->
<g id="edge18" class="edge">
<title>ItemsRoutingModule&#45;&gt;ItemsModule</title>
<path fill="none" stroke="#000000" d="M1735,-122.0109C1735,-144.4852 1735,-180 1735,-180 1735,-180 1855.6756,-180 1855.6756,-180"/>
<polygon fill="#000000" stroke="#000000" points="1855.6757,-183.5001 1865.6756,-180 1855.6756,-176.5001 1855.6757,-183.5001"/>
</g>
</g>
</svg>
