<?xml version="1.0" encoding="UTF-8" standalone="no"?>
<!DOCTYPE svg PUBLIC "-//W3C//DTD SVG 1.1//EN"
 "http://www.w3.org/Graphics/SVG/1.1/DTD/svg11.dtd">
<!-- Generated by graphviz version 2.40.1 (20161225.0304)
 -->
<!-- Title: dependencies Pages: 1 -->
<svg width="504pt" height="211pt"
 viewBox="0.00 0.00 504.00 211.00" xmlns="http://www.w3.org/2000/svg" xmlns:xlink="http://www.w3.org/1999/xlink">
<g id="graph0" class="graph" transform="scale(1 1) rotate(0) translate(4 207)">
<title>dependencies</title>
<polygon fill="#ffffff" stroke="transparent" points="-4,4 -4,-207 500,-207 500,4 -4,4"/>
<text text-anchor="start" x="227.0091" y="-42.4" font-family="sans-serif" font-weight="bold" font-size="14.00" fill="#000000">Legend</text>
<polygon fill="#ffffb3" stroke="transparent" points="14,-10 14,-30 34,-30 34,-10 14,-10"/>
<text text-anchor="start" x="37.629" y="-15.4" font-family="sans-serif" font-size="14.00" fill="#000000"> &#160;Declarations</text>
<polygon fill="#8dd3c7" stroke="transparent" points="127,-10 127,-30 147,-30 147,-10 127,-10"/>
<text text-anchor="start" x="150.7251" y="-15.4" font-family="sans-serif" font-size="14.00" fill="#000000"> &#160;Module</text>
<polygon fill="#80b1d3" stroke="transparent" points="213,-10 213,-30 233,-30 233,-10 213,-10"/>
<text text-anchor="start" x="236.7812" y="-15.4" font-family="sans-serif" font-size="14.00" fill="#000000"> &#160;Bootstrap</text>
<polygon fill="#fdb462" stroke="transparent" points="310,-10 310,-30 330,-30 330,-10 310,-10"/>
<text text-anchor="start" x="333.6732" y="-15.4" font-family="sans-serif" font-size="14.00" fill="#000000"> &#160;Providers</text>
<polygon fill="#fb8072" stroke="transparent" points="406,-10 406,-30 426,-30 426,-10 406,-10"/>
<text text-anchor="start" x="429.7258" y="-15.4" font-family="sans-serif" font-size="14.00" fill="#000000"> &#160;Exports</text>
<g id="clust1" class="cluster">
<title>cluster_AppsModule</title>
<polygon fill="none" stroke="#000000" stroke-dasharray="1,5" points="98,-70 98,-195 398,-195 398,-70 98,-70"/>
</g>
<g id="clust2" class="cluster">
<title>cluster_AppsModule_declarations</title>
<polygon fill="none" stroke="#000000" points="264,-78 264,-130 390,-130 390,-78 264,-78"/>
</g>
<g id="clust4" class="cluster">
<title>cluster_AppsModule_imports</title>
<polygon fill="none" stroke="#000000" points="106,-78 106,-130 256,-130 256,-78 106,-78"/>
</g>
<!-- AppsComponent -->
<g id="node1" class="node">
<title>AppsComponent</title>
<polygon fill="#ffffb3" stroke="#000000" points="382.3837,-122 271.6163,-122 271.6163,-86 382.3837,-86 382.3837,-122"/>
<text text-anchor="middle" x="327" y="-99.8" font-family="Times,serif" font-size="14.00" fill="#000000">AppsComponent</text>
</g>
<!-- AppsModule -->
<g id="node2" class="node">
<title>AppsModule</title>
<polygon fill="#8dd3c7" stroke="#000000" points="298.6011,-187 295.6011,-191 274.6011,-191 271.6011,-187 209.3989,-187 209.3989,-151 298.6011,-151 298.6011,-187"/>
<text text-anchor="middle" x="254" y="-164.8" font-family="Times,serif" font-size="14.00" fill="#000000">AppsModule</text>
</g>
<!-- AppsComponent&#45;&gt;AppsModule -->
<g id="edge1" class="edge">
<title>AppsComponent&#45;&gt;AppsModule</title>
<path fill="none" stroke="#000000" d="M285.0544,-122.1061C285.0544,-122.1061 285.0544,-140.991 285.0544,-140.991"/>
<polygon fill="#000000" stroke="#000000" points="281.5544,-140.9909 285.0544,-150.991 288.5544,-140.991 281.5544,-140.9909"/>
</g>
<!-- AppsRoutingModule -->
<g id="node3" class="node">
<title>AppsRoutingModule</title>
<polygon fill="#8dd3c7" stroke="#000000" points="248.219,-122 245.219,-126 224.219,-126 221.219,-122 113.781,-122 113.781,-86 248.219,-86 248.219,-122"/>
<text text-anchor="middle" x="181" y="-99.8" font-family="Times,serif" font-size="14.00" fill="#000000">AppsRoutingModule</text>
</g>
<!-- AppsRoutingModule&#45;&gt;AppsModule -->
<g id="edge2" class="edge">
<title>AppsRoutingModule&#45;&gt;AppsModule</title>
<path fill="none" stroke="#000000" d="M228.7795,-122.1061C228.7795,-122.1061 228.7795,-140.991 228.7795,-140.991"/>
<polygon fill="#000000" stroke="#000000" points="225.2795,-140.9909 228.7795,-150.991 232.2795,-140.991 225.2795,-140.9909"/>
</g>
</g>
</svg>
