<?xml version="1.0" encoding="UTF-8" standalone="no"?>
<!DOCTYPE svg PUBLIC "-//W3C//DTD SVG 1.1//EN"
 "http://www.w3.org/Graphics/SVG/1.1/DTD/svg11.dtd">
<!-- Generated by graphviz version 2.40.1 (20161225.0304)
 -->
<!-- Title: dependencies Pages: 1 -->
<svg width="683pt" height="211pt"
 viewBox="0.00 0.00 683.00 211.00" xmlns="http://www.w3.org/2000/svg" xmlns:xlink="http://www.w3.org/1999/xlink">
<g id="graph0" class="graph" transform="scale(1 1) rotate(0) translate(4 207)">
<title>dependencies</title>
<polygon fill="#ffffff" stroke="transparent" points="-4,4 -4,-207 679,-207 679,4 -4,4"/>
<text text-anchor="start" x="316.5091" y="-42.4" font-family="sans-serif" font-weight="bold" font-size="14.00" fill="#000000">Legend</text>
<polygon fill="#ffffb3" stroke="transparent" points="103.5,-10 103.5,-30 123.5,-30 123.5,-10 103.5,-10"/>
<text text-anchor="start" x="127.129" y="-15.4" font-family="sans-serif" font-size="14.00" fill="#000000"> &#160;Declarations</text>
<polygon fill="#8dd3c7" stroke="transparent" points="216.5,-10 216.5,-30 236.5,-30 236.5,-10 216.5,-10"/>
<text text-anchor="start" x="240.2251" y="-15.4" font-family="sans-serif" font-size="14.00" fill="#000000"> &#160;Module</text>
<polygon fill="#80b1d3" stroke="transparent" points="302.5,-10 302.5,-30 322.5,-30 322.5,-10 302.5,-10"/>
<text text-anchor="start" x="326.2812" y="-15.4" font-family="sans-serif" font-size="14.00" fill="#000000"> &#160;Bootstrap</text>
<polygon fill="#fdb462" stroke="transparent" points="399.5,-10 399.5,-30 419.5,-30 419.5,-10 399.5,-10"/>
<text text-anchor="start" x="423.1732" y="-15.4" font-family="sans-serif" font-size="14.00" fill="#000000"> &#160;Providers</text>
<polygon fill="#fb8072" stroke="transparent" points="495.5,-10 495.5,-30 515.5,-30 515.5,-10 495.5,-10"/>
<text text-anchor="start" x="519.2258" y="-15.4" font-family="sans-serif" font-size="14.00" fill="#000000"> &#160;Exports</text>
<g id="clust1" class="cluster">
<title>cluster_AuthModule</title>
<polygon fill="none" stroke="#000000" stroke-dasharray="1,5" points="8,-70 8,-195 667,-195 667,-70 8,-70"/>
</g>
<g id="clust2" class="cluster">
<title>cluster_AuthModule_declarations</title>
<polygon fill="none" stroke="#000000" points="196,-78 196,-130 659,-130 659,-78 196,-78"/>
</g>
<g id="clust9" class="cluster">
<title>cluster_AuthModule_providers</title>
<polygon fill="none" stroke="#000000" points="16,-78 16,-130 188,-130 188,-78 16,-78"/>
</g>
<!-- AuthComponent -->
<g id="node1" class="node">
<title>AuthComponent</title>
<polygon fill="#ffffb3" stroke="#000000" points="650.8301,-122 541.1699,-122 541.1699,-86 650.8301,-86 650.8301,-122"/>
<text text-anchor="middle" x="596" y="-99.8" font-family="Times,serif" font-size="14.00" fill="#000000">AuthComponent</text>
</g>
<!-- AuthModule -->
<g id="node4" class="node">
<title>AuthModule</title>
<polygon fill="#8dd3c7" stroke="#000000" points="410.5482,-187 407.5482,-191 386.5482,-191 383.5482,-187 323.4518,-187 323.4518,-151 410.5482,-151 410.5482,-187"/>
<text text-anchor="middle" x="367" y="-164.8" font-family="Times,serif" font-size="14.00" fill="#000000">AuthModule</text>
</g>
<!-- AuthComponent&#45;&gt;AuthModule -->
<g id="edge1" class="edge">
<title>AuthComponent&#45;&gt;AuthModule</title>
<path fill="none" stroke="#000000" d="M596,-122.1061C596,-141.3391 596,-169 596,-169 596,-169 420.6122,-169 420.6122,-169"/>
<polygon fill="#000000" stroke="#000000" points="420.6122,-165.5001 410.6122,-169 420.6121,-172.5001 420.6122,-165.5001"/>
</g>
<!-- AuthLoginComponent -->
<g id="node2" class="node">
<title>AuthLoginComponent</title>
<polygon fill="#ffffb3" stroke="#000000" points="523.273,-122 380.727,-122 380.727,-86 523.273,-86 523.273,-122"/>
<text text-anchor="middle" x="452" y="-99.8" font-family="Times,serif" font-size="14.00" fill="#000000">AuthLoginComponent</text>
</g>
<!-- AuthLoginComponent&#45;&gt;AuthModule -->
<g id="edge2" class="edge">
<title>AuthLoginComponent&#45;&gt;AuthModule</title>
<path fill="none" stroke="#000000" d="M395.6936,-122.1061C395.6936,-122.1061 395.6936,-140.991 395.6936,-140.991"/>
<polygon fill="#000000" stroke="#000000" points="392.1936,-140.9909 395.6936,-150.991 399.1936,-140.991 392.1936,-140.9909"/>
</g>
<!-- OidcCallbackComponent -->
<g id="node3" class="node">
<title>OidcCallbackComponent</title>
<polygon fill="#ffffb3" stroke="#000000" points="362.3061,-122 203.6939,-122 203.6939,-86 362.3061,-86 362.3061,-122"/>
<text text-anchor="middle" x="283" y="-99.8" font-family="Times,serif" font-size="14.00" fill="#000000">OidcCallbackComponent</text>
</g>
<!-- OidcCallbackComponent&#45;&gt;AuthModule -->
<g id="edge3" class="edge">
<title>OidcCallbackComponent&#45;&gt;AuthModule</title>
<path fill="none" stroke="#000000" d="M342.6897,-122.1061C342.6897,-122.1061 342.6897,-140.991 342.6897,-140.991"/>
<polygon fill="#000000" stroke="#000000" points="339.1898,-140.9909 342.6897,-150.991 346.1898,-140.991 339.1898,-140.9909"/>
</g>
<!-- TokenInterceptor -->
<g id="node5" class="node">
<title>TokenInterceptor</title>
<ellipse fill="#fdb462" stroke="#000000" cx="102" cy="-104" rx="78.1308" ry="18"/>
<text text-anchor="middle" x="102" y="-99.8" font-family="Times,serif" font-size="14.00" fill="#000000">TokenInterceptor</text>
</g>
<!-- TokenInterceptor&#45;&gt;AuthModule -->
<g id="edge4" class="edge">
<title>TokenInterceptor&#45;&gt;AuthModule</title>
<path fill="none" stroke="#000000" d="M102,-122.1061C102,-141.3391 102,-169 102,-169 102,-169 313.2406,-169 313.2406,-169"/>
<polygon fill="#000000" stroke="#000000" points="313.2407,-172.5001 323.2406,-169 313.2406,-165.5001 313.2407,-172.5001"/>
</g>
</g>
</svg>
